<mxfile host="app.diagrams.net" agent="Mozilla/5.0 (Windows NT 10.0; Win64; x64) AppleWebKit/537.36 (KHTML, like Gecko) Chrome/130.0.0.0 Safari/537.36" version="24.7.17">
  <diagram name="Страница — 1" id="uuPc5c3iUct8cJa28l2Y">
    <mxGraphModel dx="1434" dy="818" grid="1" gridSize="10" guides="1" tooltips="1" connect="1" arrows="1" fold="1" page="1" pageScale="1" pageWidth="827" pageHeight="1169" math="0" shadow="0">
      <root>
        <mxCell id="0" />
        <mxCell id="1" parent="0" />
        <mxCell id="rAiYi7ikZ-gLXrCKYG1a-1" value="Voice&amp;nbsp;&lt;div&gt;Module&lt;/div&gt;" style="rounded=0;whiteSpace=wrap;html=1;" vertex="1" parent="1">
          <mxGeometry x="40" width="160" height="80" as="geometry" />
        </mxCell>
        <mxCell id="rAiYi7ikZ-gLXrCKYG1a-2" value="Spech&lt;br&gt;Recognition" style="rounded=0;whiteSpace=wrap;html=1;" vertex="1" parent="1">
          <mxGeometry x="530" y="160" width="80" height="40" as="geometry" />
        </mxCell>
        <mxCell id="rAiYi7ikZ-gLXrCKYG1a-3" value="Spech&lt;br&gt;Syntesis" style="rounded=0;whiteSpace=wrap;html=1;" vertex="1" parent="1">
          <mxGeometry x="530" y="230" width="80" height="40" as="geometry" />
        </mxCell>
      </root>
    </mxGraphModel>
  </diagram>
</mxfile>
